<svg xmlns="http://www.w3.org/2000/svg" viewBox="0 0 400 300" data-imageid="coo-flatline" imageName="COO" class="illustrations_image" style="width: 144px;"><g id="_366_coo_flatline" data-name="#366_coo_flatline"><path d="M168.78,94.76h43a33.6,33.6,0,0,1,33.6,33.6v70.9a0,0,0,0,1,0,0H135.18a0,0,0,0,1,0,0v-70.9A33.6,33.6,0,0,1,168.78,94.76Z" fill="#231f20"/><path d="M245.39,199.76H135.18a.5.5,0,0,1-.5-.5v-70.9a34.14,34.14,0,0,1,34.1-34.1h43a34.14,34.14,0,0,1,34.11,34.1v70.9A.5.5,0,0,1,245.39,199.76Zm-109.71-1H244.89v-70.4a33.14,33.14,0,0,0-33.11-33.1h-43a33.14,33.14,0,0,0-33.1,33.1Z" fill="#231f20"/><path d="M185.12,109.39s-25.62,8-28.43,14.16c-2,4.4,13,43.19,13,43.19s2.25,11.55,2.1,15.76-1.5,24.34-1.5,24.34H230s-3-26.59-2.7-30.2,3.75-18.91,3.75-18.91l7.21-38s-24.36-9.91-27.26-11S185.12,109.39,185.12,109.39Z" fill="#3498db" class="target-color"/><path d="M222.53,99.7c1.81-1.26,3.26-2.86,3.48-4a7.9,7.9,0,0,0-.64-3.81C221,78.76,221.87,63.8,214.5,52.13a11.19,11.19,0,0,0-3.74-4,4.9,4.9,0,0,0-5.21,0C199,37.1,182.92,45,178.36,54c-4.84,9.47-7.67,20.34-11.26,30.34-1.11,3.09-2.24,6.32-1.87,9.59s2.7,6.56,6,6.88l1.73-3a2.36,2.36,0,0,0,.27,3.21,6.79,6.79,0,0,0,3.22,1.46c11.56,2.92,24,5.24,35.19,1.27,1.74-.61,3.77-2.13,3.07-3.83C215.7,102.94,219.59,101.76,222.53,99.7Z" fill="#fff"/><path d="M198.4,106.33c-7.32,0-14.83-1.55-22.1-3.39a7.23,7.23,0,0,1-3.46-1.6,3.13,3.13,0,0,1-.72-1.11l-.47.82a.52.52,0,0,1-.5.26c-3.69-.35-6.07-4-6.44-7.34-.38-3.45.83-6.83,1.91-9.82s2.08-6.07,3.07-9.08c2.36-7.19,4.79-14.63,8.21-21.32C181,47.62,189,42.47,195.65,42.27a11,11,0,0,1,10.07,5.23,5.62,5.62,0,0,1,5.29.22,11.78,11.78,0,0,1,3.92,4.13c4.58,7.25,6,15.87,7.46,24.21a105.18,105.18,0,0,0,3.47,15.64l.06.18a7.88,7.88,0,0,1,.59,3.9c-.27,1.49-2.08,3.22-3.68,4.34-2.53,1.77-5,2.5-6.69,2a3.15,3.15,0,0,1-1-.56l0,0a5.86,5.86,0,0,1-3.33,2.63A40,40,0,0,1,198.4,106.33ZM173,98.75a2.14,2.14,0,0,0,0,.32,2.26,2.26,0,0,0,.65,1.54,6.44,6.44,0,0,0,3,1.33c11.66,3,24,5.15,34.89,1.29a5,5,0,0,0,2.74-2.08,1.34,1.34,0,0,0,.08-.94,1.22,1.22,0,0,1-.07-.17.53.53,0,0,1,.32-.65.5.5,0,0,1,.65.29,1.46,1.46,0,0,1,.07.19,2,2,0,0,0,1.23,1.23c1.31.43,3.58-.28,5.78-1.82l.29.42-.29-.42c1.74-1.22,3.08-2.74,3.26-3.69a7.12,7.12,0,0,0-.56-3.38l-.06-.18a105.94,105.94,0,0,1-3.51-15.8C220,68,218.53,59.48,214.06,52.4a10.72,10.72,0,0,0-3.56-3.78,4.39,4.39,0,0,0-4.64,0,.51.51,0,0,1-.41.09.5.5,0,0,1-.34-.24,10.07,10.07,0,0,0-9.42-5.18c-6.33.19-13.9,5.09-16.87,10.92-3.38,6.62-5.81,14-8.15,21.17-1,3-2,6.13-3.08,9.11s-2.21,6.15-1.85,9.36c.31,2.79,2.22,5.9,5.18,6.38L172,98.37a2.2,2.2,0,0,1,.58-1,.5.5,0,0,1,.67,0,.52.52,0,0,1,.14.66Z" fill="#231f20"/><path d="M204.2,108.24s2.59,36.85-10.32,34.39c-17.17-3.66-9.36-29.54-9.36-29.54l.28-4.85L185.46,97l.61-10.51,18-.2.7,8.58.21,2.79Z" fill="#fff"/><path d="M195.09,143.26a6.61,6.61,0,0,1-1.31-.13,13.08,13.08,0,0,1-8.95-6.22c-5.14-8.71-1.17-22.74-.82-23.91l1.55-26.55a.51.51,0,0,1,.51-.49l18-.2a.54.54,0,0,1,.52.47l.9,11.38-.81,10.64c.11,1.54,1.73,26.91-5.64,33.45A5.86,5.86,0,0,1,195.09,143.26ZM186.56,87,185,113.12a.5.5,0,0,1,0,.12c-.05.14-4.33,14.64.7,23.14a12.11,12.11,0,0,0,8.26,5.74,4.86,4.86,0,0,0,4.41-1.19c7.07-6.27,5.32-32.39,5.3-32.65v-.08l.81-10.59-.86-10.81Z" fill="#231f20"/><path d="M205,97.65a17,17,0,0,1-5.86,6c-3.86,2.51-9.3,4.74-14,4L185.46,97a38.55,38.55,0,0,0,10.4,0c3-.34,6.17-.72,8.95-2.1Z" fill="#231f20"/><path d="M187.06,108.29a11.86,11.86,0,0,1-2-.16.5.5,0,0,1-.41-.51L185,97a.47.47,0,0,1,.18-.37.5.5,0,0,1,.39-.11,37.9,37.9,0,0,0,10.27,0c2.82-.31,6-.67,8.79-2a.47.47,0,0,1,.46,0,.48.48,0,0,1,.25.4l.22,2.78a.63.63,0,0,1-.06.27,17.22,17.22,0,0,1-6,6.21C195.28,106.79,190.81,108.29,187.06,108.29Zm-1.41-1.08c3.79.46,8.7-1,13.24-3.95a16.48,16.48,0,0,0,5.62-5.72l-.14-1.92a29.16,29.16,0,0,1-8.46,1.83,39.43,39.43,0,0,1-10,.11Z" fill="#231f20"/><path d="M195.84,99.53l-1.85,0a15.87,15.87,0,0,1-16-15.69c-.06-5,1.37-14.54,1.37-14.54s7.32-2.63,13.07-4.8c9.64-3.65,12.24-8.86,12.24-8.86A39,39,0,0,0,206.9,65.8a46.46,46.46,0,0,0,4.3,6.61s.29,7.82.32,11.08A15.86,15.86,0,0,1,195.84,99.53Z" fill="#fff"/><path d="M193.81,100.06a16.39,16.39,0,0,1-16.37-16.19,125.81,125.81,0,0,1,1.38-14.63.53.53,0,0,1,.34-.41c.07,0,7.38-2.65,13.05-4.79,9.31-3.52,11.94-8.56,12-8.61a.53.53,0,0,1,.57-.27.51.51,0,0,1,.41.47,39,39,0,0,0,2.22,10,45.63,45.63,0,0,0,4.24,6.5.48.48,0,0,1,.11.3c0,.08.28,7.86.32,11.1A16.39,16.39,0,0,1,195.85,100l-1.85,0Zm-14-30.36a121.73,121.73,0,0,0-1.32,14.16A15.35,15.35,0,0,0,193.81,99H194l1.84,0h0A15.36,15.36,0,0,0,211,83.5c0-3-.27-9.76-.32-10.91A43.13,43.13,0,0,1,206.43,66a38.49,38.49,0,0,1-2.16-8.85c-1.39,1.82-4.75,5.23-11.69,7.85C187.54,66.9,181.22,69.19,179.8,69.7Z" fill="#231f20"/><path d="M193.9,83.56a18.07,18.07,0,0,1-2-.1,1.12,1.12,0,0,1-.84-.55c-1.21-2,1.8-10.36,2.42-12a.5.5,0,0,1,.66-.3.51.51,0,0,1,.31.66c-1.46,3.93-3.21,10-2.51,11.12a19.56,19.56,0,0,0,4.55,0,.51.51,0,0,1,.58.44.52.52,0,0,1-.45.58A21.44,21.44,0,0,1,193.9,83.56Z" fill="#231f20"/><ellipse cx="201.99" cy="73.79" rx="1.09" ry="2.69" transform="translate(-0.8 2.23) rotate(-0.63)" fill="#231f20"/><ellipse cx="187.54" cy="73.45" rx="1.09" ry="2.69" transform="translate(-0.8 2.07) rotate(-0.63)" fill="#231f20"/><path d="M185.14,108.24c-3.42-1.83-8.83.91-9.35,2.83s1.6,32.12,9.35,36.77c3.37,2,9.42-5.21,9.42-5.21S185.9,138.83,185.14,108.24Z" fill="#fff"/><path d="M186.46,148.7a3,3,0,0,1-1.58-.42c-4.27-2.56-6.73-12.16-8-19.76-1.42-8.27-1.87-16.47-1.56-17.58s1.64-2.21,3.45-3a7.84,7.84,0,0,1,6.65-.16.52.52,0,0,1,.27.44c.74,29.91,9,33.89,9.1,33.92a.54.54,0,0,1,.3.36.5.5,0,0,1-.11.45C194.73,143.22,190.1,148.7,186.46,148.7Zm-4-40.54a8.7,8.7,0,0,0-3.36.74,5.14,5.14,0,0,0-2.87,2.31c-.36,1.32,1.57,31.65,9.13,36.18,2.27,1.36,6.48-2.54,8.36-4.64-2-1.45-8.44-8.1-9.13-34.18A5.19,5.19,0,0,0,182.51,108.16Z" fill="#231f20"/><path d="M204.2,108.24c3.43-1.83,8.84.91,9.36,2.83s-1.6,32.12-9.36,36.77c-3.36,2-9.41-5.21-9.41-5.21S203.45,138.83,204.2,108.24Z" fill="#fff"/><path d="M202.89,148.7c-3.64,0-8.27-5.48-8.49-5.74a.5.5,0,0,1-.11-.45.56.56,0,0,1,.29-.36c.08,0,8.37-4.21,9.11-33.92a.52.52,0,0,1,.27-.44,7.84,7.84,0,0,1,6.65.16c1.81.78,3.17,2,3.45,3s-.14,9.31-1.56,17.58c-1.31,7.6-3.76,17.2-8,19.76A3,3,0,0,1,202.89,148.7Zm-7.31-5.95c1.88,2.1,6.09,6,8.36,4.64,7.56-4.53,9.49-34.86,9.13-36.18a5.14,5.14,0,0,0-2.87-2.31,7.07,7.07,0,0,0-5.49-.33C204,134.65,197.58,141.3,195.58,142.75Z" fill="#231f20"/><path d="M195.45,89.78a19,19,0,0,1-9.67-2.88.51.51,0,0,1,.58-.85c.37.25,9.17,6.15,17.44-.18a.51.51,0,0,1,.72.09.52.52,0,0,1-.09.73A14.51,14.51,0,0,1,195.45,89.78Z" fill="#231f20"/><polygon points="97.34 191.37 302.66 191.37 335.61 238.92 64.39 238.92 97.34 191.37" fill="#fff"/><path d="M335.61,239.42H64.39a.5.5,0,0,1-.44-.27.49.49,0,0,1,0-.51l33-47.55a.49.49,0,0,1,.41-.22H302.66a.49.49,0,0,1,.41.22L336,238.64a.49.49,0,0,1,0,.51A.5.5,0,0,1,335.61,239.42Zm-270.26-1h269.3L302.4,191.87H97.6Z" fill="#231f20"/><rect x="64.7" y="238.92" width="270.9" height="9.23" fill="#fff"/><path d="M335.61,248.65H64.7a.5.5,0,0,1-.5-.5v-9.23a.51.51,0,0,1,.5-.5H335.61a.51.51,0,0,1,.5.5v9.23A.5.5,0,0,1,335.61,248.65Zm-270.41-1H335.11v-8.23H65.2Z" fill="#231f20"/><rect x="70.53" y="248.15" width="259.25" height="9.23" fill="#231f20"/><path d="M329.78,257.88H70.53a.5.5,0,0,1-.5-.5v-9.23a.5.5,0,0,1,.5-.5H329.78a.5.5,0,0,1,.5.5v9.23A.5.5,0,0,1,329.78,257.88ZM71,256.88H329.28v-8.23H71Z" fill="#231f20"/><path d="M229.08,167.51H229a.51.51,0,0,1-.36-.61l7.46-30.47a.5.5,0,1,1,1,.23l-7.46,30.48A.5.5,0,0,1,229.08,167.51Z" fill="#231f20"/><polygon points="232.78 200.18 195.77 200.18 200.02 231.72 247.86 231.72 232.78 200.18" fill="#fff"/><path d="M247.86,232.22H200a.5.5,0,0,1-.49-.44l-4.25-31.53a.49.49,0,0,1,.12-.4.52.52,0,0,1,.37-.17h37a.49.49,0,0,1,.45.29l15.08,31.53a.48.48,0,0,1,0,.48A.5.5,0,0,1,247.86,232.22Zm-47.4-1h46.61l-14.6-30.54H196.34Z" fill="#d1d3d4"/><polygon points="240.64 203.09 203.63 203.09 207.88 234.63 255.72 234.63 240.64 203.09" fill="#fff"/><path d="M255.72,235.12H207.88a.49.49,0,0,1-.49-.43l-4.25-31.53a.5.5,0,0,1,.49-.57h37a.5.5,0,0,1,.45.28l15.08,31.54a.49.49,0,0,1-.45.71Zm-47.4-1h46.61l-14.6-30.53H204.2Z" fill="#d1d3d4"/><path d="M242.07,228.74H213.42a.5.5,0,1,1,0-1h28.65a.5.5,0,0,1,0,1Z" fill="#d1d3d4"/><path d="M245,222.59H212.15a.5.5,0,0,1-.5-.5.51.51,0,0,1,.5-.5H245a.5.5,0,0,1,.5.5A.5.5,0,0,1,245,222.59Z" fill="#d1d3d4"/><path d="M241.65,216.45H210.6a.5.5,0,1,1,0-1h31.05a.5.5,0,1,1,0,1Z" fill="#d1d3d4"/><path d="M239.25,210.31H214.48a.5.5,0,0,1-.5-.5.5.5,0,0,1,.5-.5h24.77a.5.5,0,0,1,.5.5A.5.5,0,0,1,239.25,210.31Z" fill="#d1d3d4"/><path d="M280.66,185.6s15.44,6.5,17.26,8.85a4.34,4.34,0,0,1,.36,4.77s1.31,4.21-.64,5.31c0,0,.93,4.06-1.07,4.88-1.6.65-11.51.34-10.06-1.73a3.33,3.33,0,0,1,1.65-1c-.43,0-.63-.61-.44-1a2.05,2.05,0,0,1,1-.79,1.78,1.78,0,0,0,.77-.52c-3.17-.82-6.59-1.23-9.11-3.59l-7.05-6.6" fill="#fff"/><path d="M293.31,210.22c-2.81,0-6.35-.41-7.2-1.48a1.07,1.07,0,0,1,0-1.34,2.86,2.86,0,0,1,1.15-.91,1.32,1.32,0,0,1,0-1.05,2.2,2.2,0,0,1,1-.89l-.59-.13c-2.67-.62-5.44-1.26-7.61-3.29l-7-6.6.68-.73,7,6.6c2,1.84,4.61,2.45,7.16,3l1.74.42a.5.5,0,0,1,.34.31.48.48,0,0,1-.06.46,2,2,0,0,1-.85.64l-.11,0a1.62,1.62,0,0,0-.76.56.3.3,0,0,0,0,.29.48.48,0,0,1,.46.42.5.5,0,0,1-.33.54,2.85,2.85,0,0,0-1.42.84.27.27,0,0,0-.05.11s0,.1.33.26c1.88,1,8.1,1,9.18.61,1.32-.54,1-3.29.78-4.31a.5.5,0,0,1,.24-.55c1.31-.73.73-3.66.4-4.73a.51.51,0,0,1,.05-.4,3.82,3.82,0,0,0-.32-4.2c-1.43-1.85-12.8-6.9-17.06-8.7a.51.51,0,0,1-.27-.65.52.52,0,0,1,.66-.27c1.59.67,15.6,6.62,17.46,9a4.79,4.79,0,0,1,.5,5.13c.26.92,1,4.17-.62,5.49.19,1.06.57,4.29-1.44,5.11A11.8,11.8,0,0,1,293.31,210.22Z" fill="#231f20"/><path d="M292,200.2s-3.24,4.52-.81,4.84,5.89-5.41,5.89-5.41" fill="#fff"/><path d="M291.36,205.55h-.25a1.42,1.42,0,0,1-1.21-.83c-.63-1.46,1.29-4.25,1.68-4.8a.5.5,0,0,1,.81.59c-.83,1.16-1.88,3.11-1.57,3.81,0,.06.08.19.42.24,1.52.19,4.12-3.07,5.39-5.18a.5.5,0,1,1,.85.52C297.12,200.48,294,205.55,291.36,205.55Z" fill="#231f20"/><path d="M287.33,206.5s7,.67,10.31-2" fill="#fff"/><path d="M289.33,207.08c-1.15,0-1.95-.07-2.05-.08a.51.51,0,0,1-.45-.55.52.52,0,0,1,.55-.45c.07,0,6.85.62,9.95-1.86a.5.5,0,0,1,.63.78C295.65,206.77,291.73,207.08,289.33,207.08Z" fill="#231f20"/><path d="M302.52,180.51S282,205.78,281,206.89a22.75,22.75,0,0,0-2.57,5.44c.24-.14,4.32-2,5.3-3.25s21.57-27.21,21.57-27.21S305.41,179.79,302.52,180.51Z" fill="#fff"/><path d="M278.45,212.83a.54.54,0,0,1-.39-.17c-.55-.65,2.27-5.69,2.59-6.08.91-1.1,21.27-26.13,21.48-26.38a.44.44,0,0,1,.27-.17,3,3,0,0,1,2.72.3,2,2,0,0,1,.71,1.56.57.57,0,0,1-.11.29c-.21.26-20.6,26-21.57,27.2-.8,1-3.3,2.34-5.11,3.22l-.33.16A.48.48,0,0,1,278.45,212.83ZM302.8,181c-1.61,2-20.5,25.19-21.38,26.25a23.94,23.94,0,0,0-2.11,4.14,14.25,14.25,0,0,0,4.05-2.58c.93-1.2,19.76-24.92,21.45-27.06a.93.93,0,0,0-.33-.61A2,2,0,0,0,302.8,181Z" fill="#231f20"/><path d="M277.44,193.68s16.17,10.62,16.72,7.87-7.28-7.44-7.28-7.44" fill="#fff"/><path d="M293.47,202.48c-3.35,0-14.06-6.91-16.3-8.38a.5.5,0,0,1-.14-.69.49.49,0,0,1,.69-.15c7.81,5.13,15.12,8.88,15.95,8.2.35-1.76-4.14-5.18-7.05-6.92a.5.5,0,0,1-.17-.69.48.48,0,0,1,.68-.17c.84.5,8.12,4.95,7.52,8a1,1,0,0,1-.62.75A1.53,1.53,0,0,1,293.47,202.48Z" fill="#231f20"/><line x1="279.77" y1="209.1" x2="281.82" y2="210.56" fill="#fff"/><path d="M281.81,211.06a.52.52,0,0,1-.29-.09l-2-1.47a.5.5,0,0,1-.11-.69.49.49,0,0,1,.69-.12l2.05,1.47a.5.5,0,0,1-.3.9Z" fill="#231f20"/><path d="M238.3,119.76c10.36,3,10.61,51.23,19.43,54.69,8.45,3.31,25.33,10.76,25.33,10.76l-6.43,14.21s-19.32-.25-33-6.64-17.08-38.11-17.08-38.11S227.93,116.73,238.3,119.76Z" fill="#3498db" class="target-color"/><path d="M172.63,113.89s-23.87,5.74-29.13,13-8.39,90.68,2.26,86.24,46.68-29.24,46.68-29.24L180.25,167l-15.39,8.13V139.49Z" fill="#3498db" class="target-color"/><polygon points="195.39 194 200.19 142.21 240.87 142.75 235.55 193.4 195.39 194" fill="#fff"/><path d="M195.39,194.5a.45.45,0,0,1-.36-.16.49.49,0,0,1-.14-.38l4.8-51.8a.49.49,0,0,1,.5-.45h0l40.69.54a.49.49,0,0,1,.36.17.51.51,0,0,1,.13.38L236,193.45a.5.5,0,0,1-.48.45l-40.16.6Zm5.25-51.79-4.7,50.79,39.16-.6,5.21-49.65Z" fill="#231f20"/><ellipse cx="106.94" cy="223.11" rx="19.7" ry="5.93" fill="#fff"/><path d="M106.94,229.54c-9.93,0-20.2-2.41-20.2-6.43s10.27-6.43,20.2-6.43,20.2,2.4,20.2,6.43S116.87,229.54,106.94,229.54Zm0-11.86c-11.32,0-19.2,2.86-19.2,5.43s7.88,5.43,19.2,5.43,19.2-2.86,19.2-5.43S118.25,217.68,106.94,217.68Z" fill="#d1d3d4"/><path d="M122.79,205.17c.19,0,.36.06.54.09a6.68,6.68,0,0,1,4.15,2.34,5.75,5.75,0,0,1,.14,6.06c-2.38,4.29-8.2,5.48-12.66,5.9a4.11,4.11,0,0,1-1.88-.14,1.4,1.4,0,0,1-.18-2.65,4.94,4.94,0,0,1,1.48-.42c2.78-.45,5.71-.79,8.26-2.08,1.48-.74,3.55-2.47,2.47-4.31a3.52,3.52,0,0,0-1.57-1.33c-2.55-1.22-5-.3-7.5.45a1.39,1.39,0,0,1-.57.08,1,1,0,0,1-.73-1.13c.08-1.1,1.18-1.83,2.21-2.23A11.63,11.63,0,0,1,122.79,205.17Z" fill="#fff"/><path d="M114.21,220.1a3.56,3.56,0,0,1-1.32-.22,1.89,1.89,0,0,1-.23-3.55,5.15,5.15,0,0,1,1.64-.47l1-.16a23.88,23.88,0,0,0,7.08-1.87,4.78,4.78,0,0,0,2.43-2.38,1.52,1.52,0,0,0-.16-1.24,3,3,0,0,0-1.36-1.13c-2.15-1-4.26-.4-6.48.28l-.66.2a1.87,1.87,0,0,1-.78.1,1.52,1.52,0,0,1-1.16-1.67c.08-1.12,1-2.06,2.53-2.65a12.19,12.19,0,0,1,6.1-.67h0l.56.1a7.23,7.23,0,0,1,4.45,2.53,6.21,6.21,0,0,1,.17,6.6c-1.94,3.5-6.2,5.52-13,6.16C114.75,220.08,114.48,220.1,114.21,220.1Zm6.68-12.56a6.53,6.53,0,0,1,2.86.63,4,4,0,0,1,1.79,1.53,2.49,2.49,0,0,1,.26,2c-.48,1.63-2.37,2.69-2.94,3a24.89,24.89,0,0,1-7.38,2l-1,.16a4,4,0,0,0-1.33.36,1.1,1.1,0,0,0-.61.8,1.07,1.07,0,0,0,.73.94,3.54,3.54,0,0,0,1.65.11c6.49-.6,10.5-2.45,12.27-5.64a5.23,5.23,0,0,0-.1-5.53,6.26,6.26,0,0,0-3.84-2.14l-.52-.09a11.09,11.09,0,0,0-5.59.61c-.54.21-1.82.8-1.89,1.8,0,.28.12.57.3.6a1.13,1.13,0,0,0,.36-.07l.65-.2A15.07,15.07,0,0,1,120.89,207.54Z" fill="#231f20"/><path d="M120.7,200.57s-4.2,21-4.54,22.22S105.88,228,98,224.14l-6.91-21.42Z" fill="#fff"/><path d="M105.6,226.29a17.75,17.75,0,0,1-7.84-1.7.48.48,0,0,1-.25-.29l-6.92-21.42a.52.52,0,0,1,.06-.44.54.54,0,0,1,.38-.22l29.64-2.15a.5.5,0,0,1,.52.6c-.17.85-4.21,21-4.55,22.25-.13.48-.82,1-2.06,1.57A23.15,23.15,0,0,1,105.6,226.29Zm-7.21-2.5c7.61,3.6,16.83-.28,17.29-1.16.29-1.08,3.69-18,4.4-21.51l-28.34,2Z" fill="#231f20"/><path d="M120.7,200.57a4,4,0,0,1-1.62,3.08c-2.42,2.14-7.29,3.72-13,3.95-5.87.25-11-1-13.5-3.06A3.81,3.81,0,0,1,91,201.79c-.15-3.55,6.38-6.7,14.58-7S120.56,197,120.7,200.57Z" fill="#231f20"/><path d="M104.67,208.13c-5.25,0-9.9-1.19-12.36-3.2a4.28,4.28,0,0,1-1.81-3.12,4.13,4.13,0,0,1,1.24-3c2.35-2.55,7.77-4.35,13.82-4.59s11.62,1.1,14.16,3.45a4.07,4.07,0,0,1,1.48,2.84,4.41,4.41,0,0,1-1.8,3.48c-2.57,2.28-7.66,3.84-13.26,4.07ZM107,195.22l-1.42,0c-5.8.24-10.95,1.91-13.12,4.27a3.13,3.13,0,0,0-1,2.25,3.33,3.33,0,0,0,1.43,2.39c2.48,2,7.64,3.18,13.16,3s10.24-1.69,12.66-3.83a3.47,3.47,0,0,0,1.45-2.69h0a3.15,3.15,0,0,0-1.15-2.15C116.88,196.44,112.26,195.22,107,195.22Z" fill="#231f20"/><path d="M119.08,203.65c-2.42,2.14-7.29,3.72-13,3.95-5.87.25-11-1-13.5-3.06,2.42-2.13,7.29-3.71,13-3.95C111.45,200.36,116.58,201.62,119.08,203.65Z" fill="#3498db" class="target-color"/><path d="M104.67,208.13c-5.25,0-9.9-1.19-12.36-3.2a.5.5,0,0,1-.19-.38.52.52,0,0,1,.17-.38c2.58-2.28,7.66-3.84,13.27-4.07,5.83-.25,11.13,1,13.83,3.17a.5.5,0,0,1,.19.37.52.52,0,0,1-.17.39c-2.58,2.28-7.67,3.84-13.27,4.07Zm-11.24-3.6c2.62,1.79,7.48,2.79,12.66,2.58s9.64-1.52,12.18-3.44c-2.63-1.78-7.49-2.78-12.67-2.58S96,202.6,93.43,204.53Z" fill="#231f20"/><polygon points="269.98 231.59 261.58 220.4 290.97 219.89 269.98 231.59" fill="#231f20"/><path d="M270,232.09a.48.48,0,0,1-.4-.2l-8.4-11.19a.52.52,0,0,1-.05-.52.49.49,0,0,1,.44-.28l29.39-.51a.52.52,0,0,1,.49.37.49.49,0,0,1-.24.56l-21,11.71A.53.53,0,0,1,270,232.09Zm-7.41-11.21,7.55,10.06L289,220.42Z" fill="#231f20"/><rect x="269.98" y="215.15" width="46.51" height="16.44" fill="#fff"/><path d="M316.49,232.09H270a.5.5,0,0,1-.5-.5V215.15a.5.5,0,0,1,.5-.5h46.51a.5.5,0,0,1,.5.5v16.44A.5.5,0,0,1,316.49,232.09Zm-46-1H316V215.65H270.48Z" fill="#231f20"/><path d="M283.41,227.23a4.41,4.41,0,0,1-1.84.36,4.77,4.77,0,0,1-1.75-.31,4.21,4.21,0,0,1-1.4-.88,4.12,4.12,0,0,1-.92-1.38,4.35,4.35,0,0,1-.34-1.76,4.63,4.63,0,0,1,.34-1.78,4.11,4.11,0,0,1,.95-1.36,4.21,4.21,0,0,1,1.41-.86,5,5,0,0,1,1.75-.3,5,5,0,0,1,1.71.3,3.38,3.38,0,0,1,1.36.9l-1.35,1.34a1.58,1.58,0,0,0-.73-.56,2.3,2.3,0,0,0-.92-.19,2.49,2.49,0,0,0-1,.19,2.22,2.22,0,0,0-.74.53,2.45,2.45,0,0,0-.49.79,2.73,2.73,0,0,0-.17,1,2.77,2.77,0,0,0,.17,1,2.54,2.54,0,0,0,.48.8,2,2,0,0,0,.74.51,2.18,2.18,0,0,0,.93.19,2.21,2.21,0,0,0,1-.23,2,2,0,0,0,.71-.61l1.38,1.3A3.85,3.85,0,0,1,283.41,227.23Z"/><path d="M297,223.24a4.66,4.66,0,0,1-.33,1.78,4,4,0,0,1-2.35,2.26,5,5,0,0,1-1.79.31,4.84,4.84,0,0,1-1.77-.31,4.2,4.2,0,0,1-1.42-.88,4.15,4.15,0,0,1-.93-1.38,4.83,4.83,0,0,1,0-3.56,4,4,0,0,1,.93-1.34,4.16,4.16,0,0,1,1.42-.86,5.06,5.06,0,0,1,1.77-.3,5.21,5.21,0,0,1,1.79.3,4.11,4.11,0,0,1,1.41.86,4,4,0,0,1,.94,1.34A4.63,4.63,0,0,1,297,223.24Zm-2.12,0a2.9,2.9,0,0,0-.17-1,2.54,2.54,0,0,0-.48-.8,2.42,2.42,0,0,0-2.65-.52,2.42,2.42,0,0,0-.74.52,2.22,2.22,0,0,0-.48.8,3,3,0,0,0,0,2,2.22,2.22,0,0,0,.48.8,2.19,2.19,0,0,0,1.68.72,2.24,2.24,0,0,0,.95-.19,2.33,2.33,0,0,0,.74-.53,2.39,2.39,0,0,0,.49-.8A3.13,3.13,0,0,0,294.92,223.24Z"/><path d="M309.79,223.24a4.48,4.48,0,0,1-.34,1.78,4,4,0,0,1-.93,1.38,4.2,4.2,0,0,1-1.42.88,5.27,5.27,0,0,1-3.56,0,4.26,4.26,0,0,1-1.41-.88,4,4,0,0,1-.93-1.38,4.83,4.83,0,0,1,0-3.56,3.84,3.84,0,0,1,.93-1.34,4.21,4.21,0,0,1,1.41-.86,5.43,5.43,0,0,1,3.56,0,4.16,4.16,0,0,1,1.42.86,3.84,3.84,0,0,1,.93,1.34A4.45,4.45,0,0,1,309.79,223.24Zm-2.12,0a2.9,2.9,0,0,0-.17-1,2.54,2.54,0,0,0-.48-.8,2.42,2.42,0,0,0-.74-.52,2.32,2.32,0,0,0-1-.19,2.27,2.27,0,0,0-.95.19,2.3,2.3,0,0,0-.74.52,2.22,2.22,0,0,0-.48.8,2.9,2.9,0,0,0-.17,1,3.13,3.13,0,0,0,.17,1,2.39,2.39,0,0,0,.49.8,2.18,2.18,0,0,0,.73.53,2.47,2.47,0,0,0,1.9,0,2.33,2.33,0,0,0,.74-.53,2.39,2.39,0,0,0,.49-.8A3.13,3.13,0,0,0,307.67,223.24Z"/><path d="M169.92,171.29a.52.52,0,0,1-.49-.37c-.07-.24-7.32-24-10-31.66a.51.51,0,1,1,1-.34c2.7,7.72,10,31.46,10,31.7a.51.51,0,0,1-.35.64A.4.4,0,0,1,169.92,171.29Z" fill="#231f20"/><path d="M182.6,171.31l5.49-3.31s.39-5.09,1.26-6.73,9.19-8.86,9.19-8.86v4.32s6.53-3.95,7.68-2.7,1.07,2.32-2,4.73c0,0,2-2.33,2.71-.59S204.2,163,204.2,163s2.79-2.68,2.79-.81-3.64,4.53-3.64,4.53,3.65-1.4,2.49.43-16.78,15-16.78,15" fill="#fff"/><path d="M189.06,182.68a.5.5,0,0,1-.39-.18.5.5,0,0,1,.06-.7c4.33-3.66,15.77-13.47,16.69-14.92l.1-.18a7.57,7.57,0,0,0-2,.49.5.5,0,0,1-.47-.87c1.33-1,3.44-2.95,3.43-4.12a.71.71,0,0,0,0-.22,6.25,6.25,0,0,0-1.77,1.24l-.16.15a.5.5,0,0,1-.71,0,.51.51,0,0,1,0-.71l.21-.19c1.19-1.15,2.76-3.12,2.38-4.1-.08-.19-.16-.3-.26-.32a.81.81,0,0,0-.48.13c-.34.31-.74.64-1.19,1a.5.5,0,0,1-.69-.72,5.71,5.71,0,0,1,1.28-1.08c.85-.78,1.26-1.38,1.3-1.86a1.5,1.5,0,0,0-.54-1.12c-.46-.49-3.83.83-7.06,2.79a.52.52,0,0,1-.51,0,.51.51,0,0,1-.25-.44v-3.22c-3.29,2.88-7.7,6.94-8.25,8-.67,1.27-1.09,5.15-1.2,6.54a.49.49,0,0,1-.24.39l-5.49,3.31a.5.5,0,0,1-.52-.86l5.27-3.17c.1-1.09.49-5.16,1.29-6.68s8.45-8.25,9.31-9a.51.51,0,0,1,.54-.08.5.5,0,0,1,.29.46v3.44c2.33-1.35,6.4-3.42,7.55-2.16a2.46,2.46,0,0,1,.81,1.87,2.91,2.91,0,0,1-.73,1.58,1.45,1.45,0,0,1,.7.84,3.56,3.56,0,0,1-.8,3,.94.94,0,0,1,.34.08,1,1,0,0,1,.58,1.08c0,1.18-1.12,2.53-2.16,3.52a1.25,1.25,0,0,1,1.06.34c.27.34.23.8-.13,1.37-1.16,1.84-15.28,13.79-16.88,15.14A.49.49,0,0,1,189.06,182.68Z" fill="#231f20"/><path d="M190.28,185.84a.49.49,0,0,1-.45-.27L180,167.71,165.1,175.6a.51.51,0,0,1-.69-.22.5.5,0,0,1,.21-.69L180,166.56a.51.51,0,0,1,.69.2l10,18.32a.52.52,0,0,1-.21.7A.54.54,0,0,1,190.28,185.84Z" fill="#231f20"/><rect x="68.84" y="66.35" width="57.68" height="47.08" fill="#fff"/><path d="M126.53,113.93H68.84a.51.51,0,0,1-.5-.5V66.35a.5.5,0,0,1,.5-.5h57.69a.5.5,0,0,1,.5.5v47.08A.51.51,0,0,1,126.53,113.93Zm-57.19-1H126V66.85H69.34Z" fill="#d1d3d4"/><rect x="68.84" y="66.35" width="57.68" height="7.34" fill="#fff"/><path d="M126.53,74.19H68.84a.51.51,0,0,1-.5-.5V66.35a.5.5,0,0,1,.5-.5h57.69a.5.5,0,0,1,.5.5v7.34A.51.51,0,0,1,126.53,74.19Zm-57.19-1H126V66.85H69.34Z" fill="#d1d3d4"/><polygon points="120.88 105.87 87.45 105.87 104.17 80.07 120.88 105.87" fill="#fff"/><path d="M120.88,106.37H87.46a.49.49,0,0,1-.44-.26.51.51,0,0,1,0-.52L103.75,79.8a.52.52,0,0,1,.83,0l16.71,25.79a.51.51,0,0,1,0,.52A.48.48,0,0,1,120.88,106.37Zm-32.5-1H120L104.17,81Z" fill="#d1d3d4"/><path d="M115.78,98.51H92.55a.5.5,0,0,1-.5-.5.5.5,0,0,1,.5-.5h23.23a.5.5,0,0,1,.5.5A.5.5,0,0,1,115.78,98.51Z" fill="#d1d3d4"/><path d="M110.86,91.27H97.62a.5.5,0,0,1-.5-.5.5.5,0,0,1,.5-.5h13.24a.5.5,0,0,1,.5.5A.5.5,0,0,1,110.86,91.27Z" fill="#d1d3d4"/><path d="M83.07,101.71H76.2a.5.5,0,0,1-.5-.5.5.5,0,0,1,.5-.5h6.87a.5.5,0,0,1,.5.5A.5.5,0,0,1,83.07,101.71Z" fill="#d1d3d4"/><path d="M80.24,104.78h-4a.5.5,0,0,1-.5-.5.5.5,0,0,1,.5-.5h4a.5.5,0,0,1,.5.5A.5.5,0,0,1,80.24,104.78Z" fill="#d1d3d4"/><path d="M90.21,91.72h-14a.5.5,0,0,1-.5-.5.5.5,0,0,1,.5-.5h14a.5.5,0,0,1,.5.5A.5.5,0,0,1,90.21,91.72Z" fill="#d1d3d4"/><path d="M84.44,94.8H76.2a.5.5,0,0,1-.5-.5.5.5,0,0,1,.5-.5h8.24a.5.5,0,0,1,.5.5A.5.5,0,0,1,84.44,94.8Z" fill="#d1d3d4"/><path d="M92.9,82.61H76.2a.5.5,0,0,1,0-1H92.9a.5.5,0,0,1,0,1Z" fill="#d1d3d4"/><path d="M86,85.68H76.2a.5.5,0,1,1,0-1H86a.5.5,0,0,1,0,1Z" fill="#d1d3d4"/><path d="M120.69,98.7a.5.5,0,0,1-.5-.5V80.54a.5.5,0,0,1,.5-.5.5.5,0,0,1,.5.5V98.2A.51.51,0,0,1,120.69,98.7Z" fill="#d1d3d4"/><path d="M122.32,84a.49.49,0,0,1-.46-.32l-1.21-3.08-1.39,3.1a.5.5,0,0,1-.66.26.51.51,0,0,1-.25-.67l1.88-4.19a.46.46,0,0,1,.47-.29.48.48,0,0,1,.45.32l1.64,4.19a.51.51,0,0,1-.28.65A.63.63,0,0,1,122.32,84Z" fill="#d1d3d4"/><rect x="254.78" y="76.71" width="83.34" height="70.33" fill="#fff"/><path d="M338.13,147.54H254.78a.5.5,0,0,1-.5-.5V76.71a.51.51,0,0,1,.5-.5h83.35a.51.51,0,0,1,.5.5V147A.5.5,0,0,1,338.13,147.54Zm-82.85-1h82.35V77.21H255.28Z" fill="#d1d3d4"/><rect x="254.78" y="69.48" width="83.34" height="7.24" fill="#fff"/><path d="M338.13,77.21H254.78a.5.5,0,0,1-.5-.5V69.48a.5.5,0,0,1,.5-.5h83.35a.5.5,0,0,1,.5.5v7.23A.5.5,0,0,1,338.13,77.21Zm-82.85-1h82.35V70H255.28Z" fill="#d1d3d4"/><path d="M309.11,95.5h-24.2a.5.5,0,0,1-.5-.5V85.37a.5.5,0,0,1,.5-.5h24.2a.5.5,0,0,1,.5.5V95A.5.5,0,0,1,309.11,95.5Zm-23.7-1h23.2V85.87h-23.2Z" fill="#d1d3d4"/><path d="M290.23,121.79H266a.5.5,0,0,1-.5-.5v-9.63a.5.5,0,0,1,.5-.5h24.2a.5.5,0,0,1,.5.5v9.63A.5.5,0,0,1,290.23,121.79Zm-23.7-1h23.2v-8.63h-23.2Z" fill="#d1d3d4"/><path d="M327.42,121.79h-24.2a.5.5,0,0,1-.5-.5v-9.63a.5.5,0,0,1,.5-.5h24.2a.5.5,0,0,1,.5.5v9.63A.5.5,0,0,1,327.42,121.79Zm-23.7-1h23.2v-8.63h-23.2Z" fill="#d1d3d4"/><path d="M296.86,104.43a.5.5,0,0,1-.5-.49c-.22-8.93-.05-9.1.13-9.29a.53.53,0,0,1,.87.35.46.46,0,0,1-.05.21c-.09.66,0,4.92.05,8.71a.51.51,0,0,1-.49.51Z" fill="#d1d3d4"/><path d="M315.32,112.16a.5.5,0,0,1-.5-.5v-7.23H278.63v7.23a.5.5,0,0,1-1,0v-7.73a.5.5,0,0,1,.5-.5h37.19a.5.5,0,0,1,.5.5v7.73A.5.5,0,0,1,315.32,112.16Z" fill="#d1d3d4"/><path d="M274.57,138.89H261.28a.5.5,0,0,1-.5-.5V133.1a.5.5,0,0,1,.5-.5h13.29a.5.5,0,0,1,.5.5v5.29A.51.51,0,0,1,274.57,138.89Zm-12.79-1h12.29V133.6H261.78Z" fill="#d1d3d4"/><path d="M295,138.89H281.7a.5.5,0,0,1-.5-.5V133.1a.5.5,0,0,1,.5-.5H295a.5.5,0,0,1,.5.5v5.29A.5.5,0,0,1,295,138.89Zm-12.78-1h12.28V133.6H282.2Z" fill="#d1d3d4"/><path d="M278.2,128.38a.51.51,0,0,1-.5-.49c-.12-6.64,0-6.71.14-6.9a.52.52,0,0,1,.86.35.78.78,0,0,1,0,.16c-.06.55,0,4.16,0,6.37a.49.49,0,0,1-.49.51Z" fill="#d1d3d4"/><path d="M288.34,133.6a.5.5,0,0,1-.5-.5v-4.72H268.42v4.72a.5.5,0,0,1-.5.5.5.5,0,0,1-.5-.5v-5.22a.5.5,0,0,1,.5-.5h20.42a.5.5,0,0,1,.5.5v5.22A.5.5,0,0,1,288.34,133.6Z" fill="#d1d3d4"/><path d="M311.21,138.89H297.92a.51.51,0,0,1-.5-.5V133.1a.5.5,0,0,1,.5-.5h13.29a.5.5,0,0,1,.5.5v5.29A.5.5,0,0,1,311.21,138.89Zm-12.79-1h12.29V133.6H298.42Z" fill="#d1d3d4"/><path d="M331.63,138.89H318.34a.51.51,0,0,1-.5-.5V133.1a.5.5,0,0,1,.5-.5h13.29a.5.5,0,0,1,.5.5v5.29A.5.5,0,0,1,331.63,138.89Zm-12.79-1h12.29V133.6H318.84Z" fill="#d1d3d4"/><path d="M314.85,128.38a.5.5,0,0,1-.5-.49c-.12-6.64,0-6.71.14-6.9a.52.52,0,0,1,.86.35.41.41,0,0,1,0,.16c-.05.5,0,3.61,0,6.37a.5.5,0,0,1-.49.51Z" fill="#d1d3d4"/><path d="M325,133.6a.5.5,0,0,1-.5-.5v-4.72H305.07v4.72a.5.5,0,0,1-.5.5.5.5,0,0,1-.5-.5v-5.22a.5.5,0,0,1,.5-.5H325a.5.5,0,0,1,.5.5v5.22A.5.5,0,0,1,325,133.6Z" fill="#d1d3d4"/><rect x="88.67" y="127.85" width="31" height="28.73" fill="#fff"/><path d="M119.66,157.07h-31a.5.5,0,0,1-.5-.5V127.84a.5.5,0,0,1,.5-.5h31a.5.5,0,0,1,.5.5v28.73A.5.5,0,0,1,119.66,157.07Zm-30.49-1h30V128.34h-30Z" fill="#d1d3d4"/><path d="M115.16,134.7H93.76a.5.5,0,1,1,0-1h21.4a.5.5,0,0,1,0,1Z" fill="#d1d3d4"/><path d="M115.16,139.83H93.76a.5.5,0,0,1-.5-.5.5.5,0,0,1,.5-.5h21.4a.5.5,0,0,1,.5.5A.51.51,0,0,1,115.16,139.83Z" fill="#d1d3d4"/><path d="M115.16,145H93.76a.5.5,0,1,1,0-1h21.4a.5.5,0,1,1,0,1Z" fill="#d1d3d4"/><path d="M110.92,150.08H93.76a.5.5,0,0,1-.5-.5.5.5,0,0,1,.5-.5h17.16a.5.5,0,0,1,.5.5A.51.51,0,0,1,110.92,150.08Z" fill="#d1d3d4"/></g></svg>